<?xml version="1.0" encoding="UTF-8"?> <svg xmlns="http://www.w3.org/2000/svg" viewBox="0 0 98.21 102"><defs><style>.cls-1{fill:none;stroke:#000;stroke-linecap:round;stroke-linejoin:round;stroke-width:2px;}</style></defs><g id="Layer_2" data-name="Layer 2"><g id="Layer_1-2" data-name="Layer 1"><polyline class="cls-1" points="56.98 8.87 75.89 8.87 75.89 27.18"></polyline><polyline class="cls-1" points="22.33 27.18 22.33 8.87 41.23 8.87"></polyline><line class="cls-1" x1="70.87" y1="37.77" x2="27.35" y2="37.77"></line><path class="cls-1" d="M80.91,37.77h16.3v8.87a7.75,7.75,0,0,0-7.74,7.74V91.57A9.43,9.43,0,0,1,80,101H18.17a9.43,9.43,0,0,1-9.43-9.43V54.38A7.74,7.74,0,0,0,1,46.64V37.77H17.31"></path><line class="cls-1" x1="70.87" y1="64.18" x2="27.35" y2="64.18"></line><path class="cls-1" d="M80.91,64.18h8.56V91.57A9.43,9.43,0,0,1,80,101H18.17a9.43,9.43,0,0,1-9.43-9.43V64.18h8.57"></path><rect class="cls-1" x="17.31" y="27.18" width="10.04" height="52.47" rx="5.02"></rect><rect class="cls-1" x="70.87" y="27.18" width="10.04" height="52.47" rx="5.02"></rect><line class="cls-1" x1="34.22" y1="71.5" x2="35.11" y2="71.5"></line><line class="cls-1" x1="43.85" y1="71.5" x2="44.74" y2="71.5"></line><line class="cls-1" x1="53.48" y1="71.5" x2="54.37" y2="71.5"></line><line class="cls-1" x1="63.11" y1="71.5" x2="64" y2="71.5"></line><line class="cls-1" x1="34.22" y1="77.05" x2="35.11" y2="77.05"></line><line class="cls-1" x1="43.85" y1="77.05" x2="44.74" y2="77.05"></line><line class="cls-1" x1="53.48" y1="77.05" x2="54.37" y2="77.05"></line><line class="cls-1" x1="63.11" y1="77.05" x2="64" y2="77.05"></line><line class="cls-1" x1="34.22" y1="82.59" x2="35.11" y2="82.59"></line><line class="cls-1" x1="43.85" y1="82.59" x2="44.74" y2="82.59"></line><line class="cls-1" x1="53.48" y1="82.59" x2="54.37" y2="82.59"></line><line class="cls-1" x1="63.11" y1="82.59" x2="64" y2="82.59"></line><line class="cls-1" x1="34.22" y1="88.14" x2="35.11" y2="88.14"></line><line class="cls-1" x1="43.85" y1="88.14" x2="44.74" y2="88.14"></line><line class="cls-1" x1="53.48" y1="88.14" x2="54.37" y2="88.14"></line><line class="cls-1" x1="63.11" y1="88.14" x2="64" y2="88.14"></line><line class="cls-1" x1="34.22" y1="93.68" x2="35.11" y2="93.68"></line><line class="cls-1" x1="43.85" y1="93.68" x2="44.74" y2="93.68"></line><line class="cls-1" x1="53.48" y1="93.68" x2="54.37" y2="93.68"></line><line class="cls-1" x1="63.11" y1="93.68" x2="64" y2="93.68"></line><line class="cls-1" x1="11.76" y1="22.39" x2="11.76" y2="27.18"></line><line class="cls-1" x1="14.15" y1="24.79" x2="9.37" y2="24.79"></line><line class="cls-1" x1="88.85" y1="24.79" x2="84.06" y2="24.79"></line><path class="cls-1" d="M57,8.87A7.88,7.88,0,1,1,49.1,1,7.87,7.87,0,0,1,57,8.87Z"></path></g></g></svg> 