<?xml version="1.0" encoding="UTF-8"?> <svg xmlns="http://www.w3.org/2000/svg" viewBox="0 0 102 102"><defs><style>.cls-1{fill:none;stroke:#000;stroke-linecap:round;stroke-linejoin:round;stroke-width:2px;}</style></defs><g id="Layer_2" data-name="Layer 2"><g id="Layer_1-2" data-name="Layer 1"><path class="cls-1" d="M89.17,58.52a38.85,38.85,0,0,1-1.36,5.06,3,3,0,0,0,1.33,3.59l5.1,2.94a3,3,0,0,1,1.09,4.1l-2.07,3.58a3,3,0,0,1-4.09,1.1l-5.11-3a3,3,0,0,0-3.77.64,38.21,38.21,0,0,1-3.71,3.71,3,3,0,0,0-.64,3.77l3,5.11a3,3,0,0,1-1.1,4.09l-3.58,2.07a3,3,0,0,1-4.1-1.09l-2.94-5.11a3,3,0,0,0-3.59-1.32,38.82,38.82,0,0,1-5.06,1.35,3,3,0,0,0-2.45,2.94V98a3,3,0,0,1-3,3H48.93a3,3,0,0,1-3-3V92.11a3,3,0,0,0-2.45-2.94,38.85,38.85,0,0,1-5.06-1.36,3,3,0,0,0-3.59,1.33l-2.94,5.1a3,3,0,0,1-4.1,1.09l-3.58-2.07a3,3,0,0,1-1.1-4.09l2.95-5.11a3,3,0,0,0-.64-3.77,38.21,38.21,0,0,1-3.71-3.71,3,3,0,0,0-3.77-.64l-5.11,3a3,3,0,0,1-4.09-1.1L6.67,74.21a3,3,0,0,1,1.09-4.1l5.1-2.94a3,3,0,0,0,1.33-3.59,38.85,38.85,0,0,1-1.36-5.06,3,3,0,0,0-2.94-2.45H4a3,3,0,0,1-3-3V48.93a3,3,0,0,1,3-3H9.9a3,3,0,0,0,2.94-2.45,38.85,38.85,0,0,1,1.36-5.06,3,3,0,0,0-1.33-3.59l-5.1-2.94a3,3,0,0,1-1.1-4.11l2.06-3.57a3,3,0,0,1,4.1-1.09l5.11,2.95a3,3,0,0,0,3.78-.65,38.11,38.11,0,0,1,3.7-3.71,3,3,0,0,0,.64-3.77l-2.95-5.11a3,3,0,0,1,1.1-4.09l3.58-2.07a3,3,0,0,1,4.1,1.09l2.94,5.1a3,3,0,0,0,3.59,1.33,38.85,38.85,0,0,1,5.06-1.36,3,3,0,0,0,2.45-2.94V4a3,3,0,0,1,3-3h4.14a3,3,0,0,1,3,3V9.9a3,3,0,0,0,2.45,2.94,38.82,38.82,0,0,1,5.06,1.35,3,3,0,0,0,3.59-1.32l2.94-5.11a3,3,0,0,1,4.1-1.09l3.58,2.07a3,3,0,0,1,1.1,4.09l-3,5.11a3,3,0,0,0,.64,3.77,38.11,38.11,0,0,1,3.7,3.71,3,3,0,0,0,3.78.65l5.11-2.95a3,3,0,0,1,4.1,1.09l2.06,3.57a3,3,0,0,1-1.1,4.11l-5.1,2.94a3,3,0,0,0-1.33,3.59,38.85,38.85,0,0,1,1.36,5.06,3,3,0,0,0,2.94,2.45H98a3,3,0,0,1,3,3v4.14a3,3,0,0,1-3,3H92.11A3,3,0,0,0,89.17,58.52Z"></path><path class="cls-1" d="M27.93,37.64a2.18,2.18,0,1,1-2.18-2.18A2.18,2.18,0,0,1,27.93,37.64Z"></path><path class="cls-1" d="M21.22,46.55A2.18,2.18,0,1,1,19,44.37,2.17,2.17,0,0,1,21.22,46.55Z"></path><path class="cls-1" d="M21.22,55.45A2.18,2.18,0,1,1,19,53.28,2.17,2.17,0,0,1,21.22,55.45Z"></path><path class="cls-1" d="M27.93,64.36a2.18,2.18,0,1,1-2.18-2.18A2.17,2.17,0,0,1,27.93,64.36Z"></path><path class="cls-1" d="M74.07,37.64a2.18,2.18,0,1,0,2.18-2.18A2.18,2.18,0,0,0,74.07,37.64Z"></path><path class="cls-1" d="M80.78,46.55A2.18,2.18,0,1,0,83,44.37,2.17,2.17,0,0,0,80.78,46.55Z"></path><path class="cls-1" d="M80.78,55.45A2.18,2.18,0,1,0,83,53.28,2.17,2.17,0,0,0,80.78,55.45Z"></path><path class="cls-1" d="M74.07,64.36a2.18,2.18,0,1,0,2.18-2.18A2.17,2.17,0,0,0,74.07,64.36Z"></path><polyline class="cls-1" points="27.93 37.63 35.72 37.63 36.46 37.63"></polyline><polyline class="cls-1" points="65.53 37.63 66.28 37.63 74.06 37.63"></polyline><polyline class="cls-1" points="21.22 46.54 26.87 46.54 31.49 43.42 32.76 43.42"></polyline><polyline class="cls-1" points="69.23 43.42 70.5 43.42 75.12 46.54 80.78 46.54"></polyline><polyline class="cls-1" points="65.53 64.36 66.28 64.36 74.06 64.36"></polyline><polyline class="cls-1" points="27.93 64.36 35.72 64.36 36.46 64.36"></polyline><polyline class="cls-1" points="21.22 55.45 26.87 55.45 31.49 58.58 32.76 58.58"></polyline><polyline class="cls-1" points="69.23 58.58 70.5 58.58 75.12 55.45 80.78 55.45"></polyline><path class="cls-1" d="M64.36,27.93a2.18,2.18,0,1,1,2.18-2.18A2.18,2.18,0,0,1,64.36,27.93Z"></path><path class="cls-1" d="M55.45,21.22A2.18,2.18,0,1,1,57.63,19,2.17,2.17,0,0,1,55.45,21.22Z"></path><path class="cls-1" d="M46.55,21.22A2.18,2.18,0,1,1,48.72,19,2.17,2.17,0,0,1,46.55,21.22Z"></path><path class="cls-1" d="M37.64,27.93a2.18,2.18,0,1,1,2.18-2.18A2.17,2.17,0,0,1,37.64,27.93Z"></path><path class="cls-1" d="M64.36,74.07a2.18,2.18,0,1,0,2.18,2.18A2.18,2.18,0,0,0,64.36,74.07Z"></path><path class="cls-1" d="M55.45,80.78A2.18,2.18,0,1,0,57.63,83,2.17,2.17,0,0,0,55.45,80.78Z"></path><path class="cls-1" d="M46.55,80.78A2.18,2.18,0,1,0,48.72,83,2.17,2.17,0,0,0,46.55,80.78Z"></path><path class="cls-1" d="M37.64,74.07a2.18,2.18,0,1,0,2.18,2.18A2.17,2.17,0,0,0,37.64,74.07Z"></path><polyline class="cls-1" points="64.36 65.53 64.36 66.28 64.36 74.06"></polyline><polyline class="cls-1" points="64.36 27.93 64.36 35.72 64.36 36.46"></polyline><polyline class="cls-1" points="55.45 21.22 55.45 26.87 58.58 31.49 58.58 32.76"></polyline><polyline class="cls-1" points="58.58 69.23 58.58 70.5 55.45 75.12 55.45 80.78"></polyline><polyline class="cls-1" points="37.63 27.93 37.63 35.72 37.63 36.46"></polyline><polyline class="cls-1" points="37.63 65.53 37.63 66.28 37.63 74.06"></polyline><polyline class="cls-1" points="46.54 21.22 46.54 26.87 43.42 31.49 43.42 32.76"></polyline><polyline class="cls-1" points="43.42 69.23 43.42 70.5 46.54 75.12 46.54 80.78"></polyline><circle class="cls-1" cx="51" cy="51" r="19.74"></circle><circle class="cls-1" cx="51" cy="51" r="12.65"></circle><circle class="cls-1" cx="51" cy="51" r="4.27"></circle></g></g></svg> 