<?xml version="1.0" encoding="UTF-8"?> <svg xmlns="http://www.w3.org/2000/svg" viewBox="0 0 89.18 102"><defs><style>.cls-1{fill:none;stroke:#000;stroke-linecap:round;stroke-linejoin:round;stroke-width:2px;}</style></defs><g id="Layer_2" data-name="Layer 2"><g id="Layer_1-2" data-name="Layer 1"><path class="cls-1" d="M77.31,43.3,87.92,74a4.76,4.76,0,0,1-4.5,6.32H5.77A4.76,4.76,0,0,1,1.27,74L11.87,43.3a4.76,4.76,0,0,1,4.5-3.2H72.81A4.75,4.75,0,0,1,77.31,43.3Z"></path><polyline class="cls-1" points="9.4 53.49 26.99 53.49 44.59 53.49 62.19 53.49 79.79 53.49"></polyline><polyline class="cls-1" points="4.9 66.88 24.74 66.88 44.59 66.88 64.44 66.88 84.29 66.88"></polyline><polyline class="cls-1" points="60.4 40.1 62.19 50.45 64.44 63.46 67.35 80.27"></polyline><polyline class="cls-1" points="44.59 40.1 44.59 50.45 44.59 63.46 44.59 80.27"></polyline><polyline class="cls-1" points="28.78 40.1 26.99 50.45 24.74 63.46 21.83 80.27"></polyline><path class="cls-1" d="M29.36,101H12.65l2.07-1.75a8.37,8.37,0,0,0,3-6.44V80.27h6.55V92.81a8.4,8.4,0,0,0,3,6.44Z"></path><path class="cls-1" d="M76.53,101H59.82l2.08-1.75a8.4,8.4,0,0,0,3-6.44V80.27h6.55V92.81a8.37,8.37,0,0,0,3,6.44Z"></path><line class="cls-1" x1="83.98" y1="101" x2="5.2" y2="101"></line><path class="cls-1" d="M50.91,15.55a6.32,6.32,0,1,1-6.33-6.31A6.31,6.31,0,0,1,50.91,15.55Z"></path><line class="cls-1" x1="44.59" y1="3.23" x2="44.59" y2="1"></line><line class="cls-1" x1="44.59" y1="30.1" x2="44.59" y2="27.87"></line><line class="cls-1" x1="53.3" y1="6.84" x2="54.88" y2="5.26"></line><line class="cls-1" x1="34.3" y1="25.84" x2="35.88" y2="24.26"></line><line class="cls-1" x1="56.91" y1="15.55" x2="59.14" y2="15.55"></line><line class="cls-1" x1="30.04" y1="15.55" x2="32.27" y2="15.55"></line><line class="cls-1" x1="53.3" y1="24.26" x2="54.88" y2="25.84"></line><line class="cls-1" x1="34.3" y1="5.26" x2="35.88" y2="6.84"></line></g></g></svg> 