<?xml version="1.0" encoding="UTF-8"?> <svg xmlns="http://www.w3.org/2000/svg" xmlns:xlink="http://www.w3.org/1999/xlink" version="1.1" id="Ebene_1" x="0px" y="0px" viewBox="0 0 103 102" style="enable-background:new 0 0 103 102;" xml:space="preserve"> <style type="text/css"> .st0{fill:none;stroke:#000000;stroke-width:2;stroke-linecap:round;stroke-linejoin:round;} </style> <g id="Layer_2"> <g id="Layer_1-2"> <rect x="66.6" y="18.6" class="st0" width="31.3" height="68.2"></rect> <path class="st0" d="M97.9,18.6v-2.4c0-2.3-1.9-4.2-4.2-4.2H70.8c-2.3,0-4.2,1.9-4.2,4.2c0,0,0,0,0,0v2.4H97.9z"></path> <line class="st0" x1="72.3" y1="26.8" x2="92.2" y2="26.8"></line> <line class="st0" x1="72.3" y1="32.6" x2="92.2" y2="32.6"></line> <line class="st0" x1="72.3" y1="38.3" x2="92.2" y2="38.3"></line> <line class="st0" x1="72.3" y1="44.1" x2="92.2" y2="44.1"></line> <line class="st0" x1="72.3" y1="49.8" x2="92.2" y2="49.8"></line> <line class="st0" x1="72.3" y1="55.5" x2="92.2" y2="55.5"></line> <line class="st0" x1="72.3" y1="61.3" x2="92.2" y2="61.3"></line> <line class="st0" x1="72.3" y1="67" x2="92.2" y2="67"></line> <line class="st0" x1="72.3" y1="72.8" x2="92.2" y2="72.8"></line> <line class="st0" x1="72.3" y1="78.5" x2="92.2" y2="78.5"></line> <rect x="35.4" y="18.6" class="st0" width="31.3" height="68.2"></rect> <path class="st0" d="M66.6,18.6v-2.4c0-2.3-1.9-4.2-4.2-4.2c0,0,0,0,0,0H39.5c-2.3,0-4.2,1.9-4.2,4.2c0,0,0,0,0,0v2.4H66.6z"></path> <line class="st0" x1="41" y1="26.8" x2="61" y2="26.8"></line> <line class="st0" x1="41" y1="32.6" x2="61" y2="32.6"></line> <line class="st0" x1="41" y1="38.3" x2="61" y2="38.3"></line> <line class="st0" x1="41" y1="44.1" x2="61" y2="44.1"></line> <line class="st0" x1="41" y1="49.8" x2="61" y2="49.8"></line> <line class="st0" x1="41" y1="55.5" x2="61" y2="55.5"></line> <line class="st0" x1="41" y1="61.3" x2="61" y2="61.3"></line> <line class="st0" x1="41" y1="67" x2="61" y2="67"></line> <line class="st0" x1="41" y1="72.8" x2="61" y2="72.8"></line> <line class="st0" x1="41" y1="78.5" x2="61" y2="78.5"></line> <rect x="4.1" y="30.7" class="st0" width="31.3" height="56.1"></rect> <rect x="4.1" y="22.8" class="st0" width="31.3" height="7.9"></rect> <path class="st0" d="M10,53.8L10,53.8c0.9,0,1.7,0.8,1.7,1.7v6.4c0,0.9-0.8,1.7-1.7,1.7l0,0c-0.9,0-1.7-0.8-1.7-1.7v-6.4 C8.3,54.6,9.1,53.8,10,53.8z"></path> <line class="st0" x1="101" y1="86.8" x2="1" y2="86.8"></line> <polygon class="st0" points="21.3,36.2 14.4,46.8 18.4,46.8 18.4,55.4 25,45 21.3,45 "></polygon> </g> </g> </svg> 